<?xml version="1.0" ?>
<!-- Uploaded to: SVG Repo, www.svgrepo.com, Generator: SVG Repo Mixer Tools -->
<svg width="800px" height="800px" viewBox="0 0 120 120" id="Layer_1" version="1.1" xml:space="preserve" xmlns="http://www.w3.org/2000/svg" xmlns:xlink="http://www.w3.org/1999/xlink">
<style type="text/css">
	.st0{fill:#F4F4F4;}
	.st1{fill:#7A9BFF;}
	.st2{fill:#6588E0;}
	.st3{fill:#A9C1FC;}
	.st4{fill:#83E598;}
	.st5{fill:#FFF2F2;}
</style>
<g>
<path class="st0" d="M24.9,100.7H95c3.9,0,7-3.3,7-7.3V31.1c0-4.1-3.2-7.3-7-7.3H24.9c-3.9,0-7,3.3-7,7.3v62.2   C17.9,97.4,21,100.7,24.9,100.7z"/>
<path class="st1" d="M102.1,30.8v15.1H17.9V30.8c0-3.9,3.1-7,6.7-7h70.7C99.1,23.7,102.1,26.9,102.1,30.8z"/>
<g>
<path class="st2" d="M38.9,31.2c-2,0-3.6,1.6-3.6,3.6s1.6,3.6,3.6,3.6s3.6-1.6,3.6-3.6S40.9,31.2,38.9,31.2z"/>
<path class="st2" d="M81.1,31.2c-2,0-3.6,1.6-3.6,3.6s1.6,3.6,3.6,3.6c2,0,3.6-1.6,3.6-3.6S83.1,31.2,81.1,31.2z"/>
</g>
<g>
<path class="st0" d="M39.9,19.3h-2c-0.6,0-1.1,0.5-1.1,1.1v13.9c0,0.6,0.5,1.1,1.1,1.1h2c0.6,0,1.1-0.5,1.1-1.1V20.5    C41.1,19.8,40.5,19.3,39.9,19.3z"/>
<path class="st0" d="M82.1,19.3h-2c-0.6,0-1.1,0.5-1.1,1.1v13.9c0,0.6,0.5,1.1,1.1,1.1h2c0.6,0,1.1-0.5,1.1-1.1V20.5    C83.2,19.8,82.7,19.3,82.1,19.3z"/>
</g>
<g>
<path class="st3" d="M39.7,56.4H33c-1,0-1.8,0.8-1.8,1.8v6.6c0,1,0.8,1.8,1.8,1.8h6.6c1,0,1.8-0.8,1.8-1.8v-6.6    C41.5,57.2,40.7,56.4,39.7,56.4z"/>
<path class="st3" d="M87,56.4h-6.6c-1,0-1.8,0.8-1.8,1.8v6.6c0,1,0.8,1.8,1.8,1.8H87c1,0,1.8-0.8,1.8-1.8v-6.6    C88.8,57.2,88,56.4,87,56.4z"/>
<path class="st3" d="M63.3,56.4h-6.6c-1,0-1.8,0.8-1.8,1.8v6.6c0,1,0.8,1.8,1.8,1.8h6.6c1,0,1.8-0.8,1.8-1.8v-6.6    C65.1,57.2,64.3,56.4,63.3,56.4z"/>
<path class="st3" d="M39.7,77H33c-1,0-1.8,0.8-1.8,1.8v6.6c0,1,0.8,1.8,1.8,1.8h6.6c1,0,1.8-0.8,1.8-1.8v-6.6    C41.5,77.8,40.7,77,39.7,77z"/>
<path class="st3" d="M87,77h-6.6c-1,0-1.8,0.8-1.8,1.8v6.6c0,1,0.8,1.8,1.8,1.8H87c1,0,1.8-0.8,1.8-1.8v-6.6    C88.8,77.8,88,77,87,77z"/>
<path class="st3" d="M63.3,77h-6.6c-1,0-1.8,0.8-1.8,1.8v6.6c0,1,0.8,1.8,1.8,1.8h6.6c1,0,1.8-0.8,1.8-1.8v-6.6    C65.1,77.8,64.3,77,63.3,77z"/>
</g>
<g>
<path class="st4" d="M83.6,90.1c-4.4,0-8-3.6-8-8s3.6-8,8-8s8,3.6,8,8S88.1,90.1,83.6,90.1z M83.6,76.1c-3.3,0-6,2.7-6,6    s2.7,6,6,6s6-2.7,6-6S87,76.1,83.6,76.1z"/>
</g>
<path class="st5" d="M82.8,85.2L82.8,85.2c-0.3,0-0.6-0.1-0.7-0.4l-2.8-3.1c-0.4-0.4-0.3-1.1,0.1-1.4c0.4-0.4,1.1-0.3,1.4,0.1   l2.1,2.4l3.6-3.5c0.4-0.4,1-0.4,1.4,0c0.4,0.4,0.4,1,0,1.4L83.5,85C83.4,85.1,83.1,85.2,82.8,85.2z"/>
</g>
</svg>