<?xml version="1.0" encoding="iso-8859-1"?>
<!-- Uploaded to: SVG Repo, www.svgrepo.com, Generator: SVG Repo Mixer Tools -->
<svg version="1.1" id="Layer_1" xmlns="http://www.w3.org/2000/svg" xmlns:xlink="http://www.w3.org/1999/xlink" 
	 viewBox="0 0 512.001 512.001" xml:space="preserve">
<rect x="106.091" y="79.936" style="fill:#ECF0F1;" width="299.813" height="421.166"/>
<rect x="168.779" y="54.511" style="fill:#B71C1C;" width="174.437" height="54.511"/>
<rect x="151.63" y="161.812" style="fill:#2196F3;" width="54.511" height="54.511"/>
<rect x="151.63" y="259.932" style="fill:#4CAF50;" width="54.511" height="54.511"/>
<rect x="151.63" y="358.053" style="fill:#FFC107;" width="54.511" height="54.511"/>
<g>
	<path style="fill:#231F20;" d="M206.139,150.906h-54.511c-6.02,0-10.902,4.881-10.902,10.902v54.511
		c0,6.021,4.882,10.902,10.902,10.902h54.511c6.02,0,10.902-4.881,10.902-10.902v-54.511
		C217.041,155.787,212.159,150.906,206.139,150.906z M195.237,205.418H162.53v-32.707h32.707V205.418z"/>
	<path style="fill:#231F20;" d="M245.115,199.967h112.294c6.02,0,10.902-4.881,10.902-10.902s-4.882-10.902-10.902-10.902H245.115
		c-6.02,0-10.902,4.881-10.902,10.902S239.093,199.967,245.115,199.967z"/>
	<path style="fill:#231F20;" d="M206.139,249.027h-54.511c-6.02,0-10.902,4.881-10.902,10.902v54.511
		c0,6.021,4.882,10.902,10.902,10.902h54.511c6.02,0,10.902-4.881,10.902-10.902v-54.511
		C217.041,253.908,212.159,249.027,206.139,249.027z M195.237,303.538H162.53v-32.707h32.707V303.538z"/>
	<path style="fill:#231F20;" d="M245.115,298.087h112.294c6.02,0,10.902-4.881,10.902-10.902c0-6.021-4.882-10.902-10.902-10.902
		H245.115c-6.02,0-10.902,4.881-10.902,10.902C234.212,293.206,239.093,298.087,245.115,298.087z"/>
	<path style="fill:#231F20;" d="M206.139,347.148h-54.511c-6.02,0-10.902,4.881-10.902,10.902v54.511
		c0,6.021,4.882,10.902,10.902,10.902h54.511c6.02,0,10.902-4.881,10.902-10.902V358.05
		C217.041,352.029,212.159,347.148,206.139,347.148z M195.237,401.659H162.53v-32.707h32.707V401.659z"/>
	<path style="fill:#231F20;" d="M245.115,396.208h112.294c6.02,0,10.902-4.881,10.902-10.902c0-6.021-4.882-10.902-10.902-10.902
		H245.115c-6.02,0-10.902,4.881-10.902,10.902C234.212,391.327,239.093,396.208,245.115,396.208z"/>
	<path style="fill:#231F20;" d="M256.001,443.36h-10.886c-6.02,0-10.902,4.881-10.902,10.902c0,6.021,4.882,10.902,10.902,10.902
		h10.886c6.02,0,10.902-4.881,10.902-10.902C266.903,448.241,262.022,443.36,256.001,443.36z"/>
	<path style="fill:#231F20;" d="M405.907,69.03h-51.786V54.511c0-6.021-4.882-10.902-10.902-10.902h-46.335v-2.726
		C296.884,18.34,278.544,0,256.001,0s-40.884,18.34-40.884,40.884v2.726h-46.335c-6.02,0-10.902,4.881-10.902,10.902V69.03h-51.786
		c-6.02,0-10.902,4.881-10.902,10.902v421.166c0,6.021,4.882,10.902,10.902,10.902h299.813c6.02,0,10.902-4.881,10.902-10.902
		V79.932C416.809,73.911,411.928,69.03,405.907,69.03z M236.922,40.884c0-10.52,8.559-19.079,19.079-19.079
		s19.079,8.559,19.079,19.079v2.726h-38.158V40.884z M179.685,65.414h46.335h59.963h46.335v32.707H179.685L179.685,65.414
		L179.685,65.414z M116.996,490.195V90.835h40.884v18.188c0,6.021,4.882,10.902,10.902,10.902h174.437
		c6.02,0,10.902-4.881,10.902-10.902V90.835h40.884V443.36h-86.657c-6.02,0-10.902,4.881-10.902,10.902
		c0,6.021,4.882,10.902,10.902,10.902h86.657v25.032H116.996V490.195z"/>
</g>
</svg>